<svg version="1.2" xmlns="http://www.w3.org/2000/svg" viewBox="0 0 34 31" width="34" height="31">
	<title>argent</title>
	<defs>
		<clipPath clipPathUnits="userSpaceOnUse" id="cp1">
			<path d="m0 0h104v30.48h-104z"/>
		</clipPath>
	</defs>
	<style>
		.s0 { fill: #ffffff } 
		.s1 { fill: #ff875b } 
	</style>
	<g id="Clip-Path" clip-path="url(#cp1)">
		<g>
			<path class="s0" d="m103.6 9.7h-2.3v-2.8q0-0.2-0.1-0.4-0.2-0.1-0.4-0.1l-2.1 0.5c-0.2 0.1-0.3 0.3-0.3 0.5v2.3h-1.2c-0.2 0-0.4 0.2-0.4 0.4v1.7c0 0.3 0.2 0.5 0.4 0.5h1.2v6.8c0 2.9 1.9 3.3 3.8 3.3q0.3-0.1 0.6-0.1 0.3 0 0.7 0c0.2 0 0.4-0.2 0.4-0.5v-1.8c0-0.2-0.2-0.4-0.4-0.4h-0.7c-1.1 0-1.5-0.5-1.5-1.6v-5.7h2.3c0.3 0 0.5-0.2 0.5-0.5v-1.7c0-0.2-0.2-0.4-0.5-0.4z"/>
			<path class="s0" d="m91.3 9.5q-1.9 0-2.9 1.1v-0.5c0-0.2-0.2-0.4-0.4-0.4h-2.2c-0.2 0-0.4 0.2-0.4 0.4v11.7c0 0.3 0.2 0.5 0.4 0.5h2.2c0.2 0 0.4-0.2 0.4-0.5v-7.3c0-1.3 0.9-2.3 2.1-2.3 1.2 0 2 0.9 2 2.3v7.3c0 0.3 0.2 0.5 0.5 0.5h2.1c0.3 0 0.5-0.2 0.5-0.5v-7.8c0-2.8-1.7-4.5-4.3-4.5z"/>
			<path class="s0" d="m78.2 9.5c-2.5 0-4.4 1.4-5.1 3.7q-0.3 1.1-0.3 2.7 0 2 0.6 3.3c0.8 2.1 2.6 3.3 5 3.3q0 0 0.1 0c2 0 3.7-0.8 4.7-2.3q0.2-0.3-0.1-0.6l-1.4-1.2c-0.2-0.1-0.3-0.1-0.4-0.1-0.1 0-0.2 0-0.3 0.2q-0.9 1.2-2.3 1.3-2.1-0.1-2.6-1.7c-0.1-0.2-0.1-0.6-0.2-0.9h7.2c0.3 0 0.5-0.2 0.5-0.5 0-0.8 0-1.5-0.1-2.1-0.4-3.4-2.2-5.1-5.3-5.1zm2.3 5.2h-4.6c0.1-0.4 0.1-0.6 0.2-0.9 0.3-1 1-1.6 2.1-1.6 1.1 0 1.9 0.7 2.2 1.7q0 0.3 0.1 0.8z"/>
			<path class="s0" d="m70.6 9.7h-2.2c-0.2 0-0.4 0.2-0.4 0.4v0.4q-1.1-1-2.8-1c-2.1 0-3.8 1.3-4.5 3.3-0.3 1-0.3 2.2-0.3 3.1 0 1.2 0.1 2.2 0.3 2.9 0.7 2.5 2.9 3.4 4.6 3.4q1.7 0 2.7-0.9 0 1.5-0.8 2.2c-0.8 0.7-2 0.9-3.7 0.7-0.5 0-0.5 0.3-0.5 0.5l-0.1 1.9c0 0.3 0.2 0.5 0.4 0.5q0.7 0.1 1.3 0.1c2 0 3.6-0.5 4.7-1.5q1.7-1.6 1.7-4.4v-11.2c0-0.2-0.2-0.4-0.4-0.4zm-2.6 6.2c0 1.3-0.1 1.6-0.2 2.1-0.2 1-1 1.5-2 1.5-1 0-1.8-0.6-2.1-1.6-0.1-0.2-0.3-0.8-0.3-2 0-0.9 0.1-1.6 0.3-2 0.3-1.1 1.1-1.7 2.1-1.7 1 0 1.8 0.6 2 1.6 0.1 0.5 0.2 0.8 0.2 2.1z"/>
			<path class="s0" d="m59.3 9.7q-0.5-0.2-1.1-0.2-1.6 0-2.6 1.3v-0.7c0-0.2-0.2-0.4-0.5-0.4h-2.1c-0.3 0-0.5 0.2-0.5 0.4v11.7c0 0.3 0.2 0.5 0.5 0.5h2.1c0.3 0 0.5-0.2 0.5-0.5v-6.8c0-1.4 1-2.1 2.1-2.2 0.4-0.1 0.6 0 0.8 0 0.3 0.1 0.5-0.1 0.6-0.4l0.5-2c0.1-0.3 0-0.6-0.3-0.7z"/>
			<path class="s0" d="m45.3 9.5c-2.4 0-4.3 1.1-4.8 2.7q-0.1 0.3 0 0.5 0.1 0.1 0.3 0.2l2.2 0.5c0.2 0.1 0.4-0.1 0.5-0.3 0.2-0.5 0.9-0.9 1.9-0.9 1.2 0 1.9 0.7 1.9 1.8v0.5h-2.4c-3.2 0-5 1.6-5 4.2 0 2.8 2.1 3.8 4.2 3.8 1.3 0 2.4-0.4 3.2-1.2v0.5c0 0.3 0.2 0.5 0.5 0.5h2.1c0.3 0 0.5-0.2 0.5-0.5v-8.1c0-2.5-2.1-4.2-5.1-4.2zm2 7.3v1.1c0 1.3-1.3 2-2.6 2-0.8 0-1.7-0.4-1.7-1.4 0-1.1 0.9-1.7 2.4-1.7z"/>
			<path class="s1" d="m20.9 0h-8.5c-0.3 0-0.6 0.2-0.6 0.5-0.1 8.4-4.3 16.2-11.6 21.8-0.2 0.2-0.3 0.5-0.1 0.8l5 7.2c0.2 0.2 0.5 0.3 0.7 0.1 4.6-3.5 8.2-7.7 10.8-12.3 2.7 4.6 6.3 8.8 10.8 12.3 0.3 0.2 0.6 0.1 0.8-0.1l5-7.2c0.2-0.3 0.1-0.6-0.1-0.8-7.3-5.6-11.5-13.4-11.6-21.8-0.1-0.3-0.3-0.5-0.6-0.5z"/>
		</g>
	</g>
</svg>